<svg width="144" height="124" viewBox="0 0 144 124" fill="none" xmlns="http://www.w3.org/2000/svg">
<path d="M23.5595 16.0849C23.5713 11.6666 27.1618 8.16245 31.5791 8.25812L48.3303 8.6209C52.7475 8.71657 56.3188 12.3758 56.307 16.7941L56.2725 29.6405C56.2607 34.0588 52.6702 37.5629 48.253 37.4673L31.5017 37.1045C27.0845 37.0088 23.5132 33.3496 23.5251 28.9313L23.5595 16.0849Z" fill="#006666"/>
<path d="M55.9786 55C55.9904 50.5817 59.5809 47.0776 63.9981 47.1732L80.7493 47.536C85.1666 47.6317 88.7379 51.2909 88.726 55.7092L88.6916 68.5556C88.6797 72.9739 85.0893 76.478 80.672 76.3824L63.9208 76.0196C59.5036 75.9239 55.9323 72.2647 55.9441 67.8464L55.9786 55Z" fill="#19FFFF"/>
<path d="M87.5595 94.0848C87.5713 89.6666 91.1618 86.1624 95.579 86.2581L112.33 86.6209C116.747 86.7165 120.319 90.3758 120.307 94.7941L120.272 107.64C120.261 112.059 116.67 115.563 112.253 115.467L95.5017 115.104C91.0845 115.009 87.5132 111.35 87.525 106.931L87.5595 94.0848Z" fill="#006666"/>
</svg>
