<svg width="224" height="124" viewBox="0 0 224 124" fill="none" xmlns="http://www.w3.org/2000/svg">
<path d="M23.5595 16.0849C23.5713 11.6666 27.1618 8.16245 31.5791 8.25812L48.3303 8.6209C52.7475 8.71657 56.3188 12.3758 56.307 16.7941L56.2725 29.6405C56.2607 34.0588 52.6702 37.5629 48.253 37.4673L31.5017 37.1045C27.0845 37.0088 23.5132 33.3496 23.5251 28.9313L23.5595 16.0849Z" fill="#006666"/>
<path d="M55.9786 55C55.9904 50.5817 59.5809 47.0776 63.9981 47.1732L80.7493 47.536C85.1666 47.6317 88.7379 51.2909 88.726 55.7092L88.6916 68.5556C88.6797 72.9739 85.0893 76.478 80.672 76.3824L63.9208 76.0196C59.5036 75.9239 55.9323 72.2647 55.9441 67.8464L55.9786 55Z" fill="#19FFFF"/>
<path d="M87.5595 94.0848C87.5713 89.6666 91.1618 86.1624 95.579 86.2581L112.33 86.6209C116.747 86.7165 120.319 90.3758 120.307 94.7941L120.272 107.64C120.261 112.059 116.67 115.563 112.253 115.467L95.5017 115.104C91.0845 115.009 87.5132 111.35 87.525 106.931L87.5595 94.0848Z" fill="#006666"/>
<path d="M100.512 72.4049C99.4663 72.4049 98.4956 72.1915 97.5996 71.7649C96.7036 71.3382 95.9889 70.7622 95.4556 70.0369C94.9436 69.2902 94.6876 68.4689 94.6876 67.5729C94.6876 66.1649 95.2636 65.0129 96.4156 64.1169C97.5889 63.1995 99.1676 62.6022 101.152 62.3249L105.92 61.6529V60.7249C105.92 58.5489 104.672 57.4609 102.176 57.4609C101.237 57.4609 100.469 57.6635 99.8716 58.0689C99.2743 58.4529 98.8263 58.9115 98.5276 59.4449C98.4636 59.6369 98.3783 59.7755 98.2716 59.8609C98.1863 59.9462 98.0583 59.9889 97.8876 59.9889H96.5116C96.3196 59.9889 96.1489 59.9249 95.9996 59.7969C95.8716 59.6475 95.8076 59.4769 95.8076 59.2849C95.8289 58.7729 96.0636 58.1969 96.5116 57.5569C96.9809 56.8955 97.6956 56.3302 98.6556 55.8609C99.6156 55.3702 100.8 55.1249 102.208 55.1249C104.597 55.1249 106.314 55.6902 107.36 56.8209C108.405 57.9302 108.928 59.3169 108.928 60.9809V71.3489C108.928 71.5622 108.853 71.7435 108.704 71.8929C108.576 72.0209 108.405 72.0849 108.192 72.0849H106.72C106.506 72.0849 106.325 72.0209 106.176 71.8929C106.048 71.7435 105.984 71.5622 105.984 71.3489V69.9729C105.514 70.6555 104.832 71.2315 103.936 71.7009C103.04 72.1702 101.898 72.4049 100.512 72.4049ZM101.184 70.0049C102.57 70.0049 103.701 69.5569 104.576 68.6609C105.472 67.7435 105.92 66.4315 105.92 64.7249V63.8289L102.208 64.3729C100.693 64.5862 99.5516 64.9489 98.7836 65.4609C98.0156 65.9515 97.6316 66.5809 97.6316 67.3489C97.6316 68.2022 97.9836 68.8635 98.6876 69.3329C99.3916 69.7809 100.224 70.0049 101.184 70.0049Z" fill="#00B3B3"/>
<path d="M114.264 72.0849C114.051 72.0849 113.869 72.0209 113.72 71.8929C113.592 71.7435 113.528 71.5622 113.528 71.3489V56.1809C113.528 55.9675 113.592 55.7969 113.72 55.6689C113.869 55.5195 114.051 55.4449 114.264 55.4449H115.768C115.981 55.4449 116.152 55.5195 116.28 55.6689C116.429 55.7969 116.504 55.9675 116.504 56.1809V57.5889C117.123 56.7995 117.848 56.1915 118.68 55.7649C119.533 55.3382 120.589 55.1249 121.848 55.1249C123.896 55.1249 125.485 55.7862 126.616 57.1089C127.768 58.4102 128.344 60.1489 128.344 62.3249V71.3489C128.344 71.5622 128.269 71.7435 128.12 71.8929C127.992 72.0209 127.821 72.0849 127.608 72.0849H126.008C125.795 72.0849 125.613 72.0209 125.464 71.8929C125.336 71.7435 125.272 71.5622 125.272 71.3489V62.4849C125.272 60.9702 124.899 59.7969 124.152 58.9649C123.427 58.1329 122.371 57.7169 120.984 57.7169C119.64 57.7169 118.573 58.1435 117.784 58.9969C116.995 59.8289 116.6 60.9915 116.6 62.4849V71.3489C116.6 71.5622 116.525 71.7435 116.376 71.8929C116.248 72.0209 116.077 72.0849 115.864 72.0849H114.264Z" fill="#00B3B3"/>
<path d="M135.346 78.1649C135.175 78.1649 135.026 78.1009 134.898 77.9729C134.77 77.8449 134.706 77.6955 134.706 77.5249C134.706 77.3755 134.759 77.1835 134.866 76.9489L137.33 71.0929L131.218 56.6609C131.111 56.3835 131.058 56.2022 131.058 56.1169C131.058 55.9249 131.122 55.7649 131.25 55.6369C131.378 55.5089 131.538 55.4449 131.73 55.4449H133.298C133.639 55.4449 133.895 55.6262 134.066 55.9889L138.93 67.6369L143.922 55.9889C144.093 55.6262 144.359 55.4449 144.722 55.4449H146.226C146.418 55.4449 146.578 55.5089 146.706 55.6369C146.834 55.7649 146.898 55.9142 146.898 56.0849C146.898 56.1489 146.845 56.3409 146.738 56.6609L137.65 77.6209C137.479 77.9835 137.213 78.1649 136.85 78.1649H135.346Z" fill="#00B3B3"/>
<path d="M156.586 72.0849C153.216 72.0849 151.53 70.2075 151.53 66.4529V58.0049H149.034C148.821 58.0049 148.64 57.9409 148.49 57.8129C148.362 57.6635 148.298 57.4822 148.298 57.2689V56.1809C148.298 55.9675 148.362 55.7969 148.49 55.6689C148.64 55.5195 148.821 55.4449 149.034 55.4449H151.53V50.1009C151.53 49.8875 151.594 49.7169 151.722 49.5889C151.872 49.4395 152.053 49.3649 152.266 49.3649H153.77C153.984 49.3649 154.154 49.4395 154.282 49.5889C154.432 49.7169 154.506 49.8875 154.506 50.1009V55.4449H158.474C158.688 55.4449 158.858 55.5195 158.986 55.6689C159.136 55.7969 159.21 55.9675 159.21 56.1809V57.2689C159.21 57.4822 159.136 57.6635 158.986 57.8129C158.858 57.9409 158.688 58.0049 158.474 58.0049H154.506V66.2289C154.506 67.2955 154.688 68.1062 155.05 68.6609C155.413 69.1942 156.01 69.4609 156.842 69.4609H158.794C159.008 69.4609 159.178 69.5355 159.306 69.6849C159.456 69.8129 159.53 69.9835 159.53 70.1969V71.3489C159.53 71.5622 159.456 71.7435 159.306 71.8929C159.178 72.0209 159.008 72.0849 158.794 72.0849H156.586Z" fill="#00B3B3"/>
<path d="M163.358 72.0849C163.145 72.0849 162.964 72.0209 162.814 71.8929C162.686 71.7435 162.622 71.5622 162.622 71.3489V50.1009C162.622 49.8875 162.686 49.7169 162.814 49.5889C162.964 49.4395 163.145 49.3649 163.358 49.3649H164.958C165.172 49.3649 165.342 49.4395 165.47 49.5889C165.62 49.7169 165.694 49.8875 165.694 50.1009V57.5569C166.313 56.7675 167.038 56.1702 167.87 55.7649C168.702 55.3382 169.737 55.1249 170.974 55.1249C173.022 55.1249 174.612 55.7862 175.742 57.1089C176.894 58.4102 177.47 60.1489 177.47 62.3249V71.3489C177.47 71.5622 177.396 71.7435 177.246 71.8929C177.118 72.0209 176.948 72.0849 176.734 72.0849H175.134C174.921 72.0849 174.74 72.0209 174.59 71.8929C174.462 71.7435 174.398 71.5622 174.398 71.3489V62.4849C174.398 60.9702 174.025 59.7969 173.278 58.9649C172.553 58.1329 171.497 57.7169 170.11 57.7169C168.766 57.7169 167.689 58.1435 166.878 58.9969C166.089 59.8289 165.694 60.9915 165.694 62.4849V71.3489C165.694 71.5622 165.62 71.7435 165.47 71.8929C165.342 72.0209 165.172 72.0849 164.958 72.0849H163.358Z" fill="#00B3B3"/>
<path d="M182.57 52.3409C182.357 52.3409 182.176 52.2769 182.026 52.1489C181.898 51.9995 181.834 51.8182 181.834 51.6049V49.8769C181.834 49.6635 181.898 49.4822 182.026 49.3329C182.176 49.1835 182.357 49.1089 182.57 49.1089H184.586C184.8 49.1089 184.981 49.1835 185.13 49.3329C185.28 49.4822 185.354 49.6635 185.354 49.8769V51.6049C185.354 51.8182 185.28 51.9995 185.13 52.1489C184.981 52.2769 184.8 52.3409 184.586 52.3409H182.57ZM182.826 72.0849C182.613 72.0849 182.432 72.0209 182.282 71.8929C182.154 71.7435 182.09 71.5622 182.09 71.3489V56.1809C182.09 55.9675 182.154 55.7969 182.282 55.6689C182.432 55.5195 182.613 55.4449 182.826 55.4449H184.362C184.576 55.4449 184.746 55.5195 184.874 55.6689C185.024 55.7969 185.098 55.9675 185.098 56.1809V71.3489C185.098 71.5622 185.024 71.7435 184.874 71.8929C184.746 72.0209 184.576 72.0849 184.362 72.0849H182.826Z" fill="#00B3B3"/>
<path d="M190.576 72.0849C190.363 72.0849 190.182 72.0209 190.032 71.8929C189.904 71.7435 189.84 71.5622 189.84 71.3489V56.1809C189.84 55.9675 189.904 55.7969 190.032 55.6689C190.182 55.5195 190.363 55.4449 190.576 55.4449H192.08C192.294 55.4449 192.464 55.5195 192.592 55.6689C192.742 55.7969 192.816 55.9675 192.816 56.1809V57.5889C193.435 56.7995 194.16 56.1915 194.992 55.7649C195.846 55.3382 196.902 55.1249 198.16 55.1249C200.208 55.1249 201.798 55.7862 202.928 57.1089C204.08 58.4102 204.656 60.1489 204.656 62.3249V71.3489C204.656 71.5622 204.582 71.7435 204.432 71.8929C204.304 72.0209 204.134 72.0849 203.92 72.0849H202.32C202.107 72.0849 201.926 72.0209 201.776 71.8929C201.648 71.7435 201.584 71.5622 201.584 71.3489V62.4849C201.584 60.9702 201.211 59.7969 200.464 58.9649C199.739 58.1329 198.683 57.7169 197.296 57.7169C195.952 57.7169 194.886 58.1435 194.096 58.9969C193.307 59.8289 192.912 60.9915 192.912 62.4849V71.3489C192.912 71.5622 192.838 71.7435 192.688 71.8929C192.56 72.0209 192.39 72.0849 192.176 72.0849H190.576Z" fill="#00B3B3"/>
<path d="M216.063 79.1249C214.313 79.1249 212.905 78.8262 211.839 78.2289C210.772 77.6529 210.015 76.9915 209.567 76.2449C209.119 75.4982 208.873 74.8262 208.831 74.2289C208.809 74.0155 208.873 73.8342 209.023 73.6849C209.193 73.5355 209.375 73.4609 209.567 73.4609H211.103C211.295 73.4609 211.455 73.5035 211.583 73.5889C211.711 73.6955 211.817 73.8769 211.903 74.1329C212.159 74.8155 212.575 75.4022 213.151 75.8929C213.748 76.4049 214.665 76.6609 215.903 76.6609C217.481 76.6609 218.644 76.3195 219.391 75.6369C220.137 74.9755 220.511 73.7915 220.511 72.0849V69.9089C219.956 70.6129 219.252 71.1782 218.399 71.6049C217.545 72.0102 216.532 72.2129 215.359 72.2129C213.097 72.2129 211.401 71.4982 210.271 70.0689C209.161 68.6182 208.575 66.7835 208.511 64.5649L208.479 63.6689L208.511 62.8049C208.575 60.6075 209.172 58.7835 210.303 57.3329C211.433 55.8609 213.119 55.1249 215.359 55.1249C217.599 55.1249 219.348 55.9462 220.607 57.5889V56.2129C220.607 55.9995 220.671 55.8182 220.799 55.6689C220.948 55.5195 221.129 55.4449 221.343 55.4449H222.815C223.028 55.4449 223.209 55.5195 223.359 55.6689C223.508 55.8182 223.583 55.9995 223.583 56.2129V71.7329C223.583 76.6609 221.076 79.1249 216.063 79.1249ZM215.999 69.6529C217.449 69.6529 218.548 69.1729 219.295 68.2129C220.041 67.2529 220.447 66.1115 220.511 64.7889C220.532 64.5969 220.543 64.2235 220.543 63.6689C220.543 63.1355 220.532 62.7729 220.511 62.5809C220.447 61.2582 220.041 60.1169 219.295 59.1569C218.569 58.1969 217.471 57.7169 215.999 57.7169C214.484 57.7169 213.385 58.1862 212.703 59.1249C212.02 60.0635 211.647 61.3009 211.583 62.8369L211.551 63.6689L211.583 64.5329C211.647 66.0475 212.02 67.2849 212.703 68.2449C213.385 69.1835 214.484 69.6529 215.999 69.6529Z" fill="#00B3B3"/>
<path d="M73.4876 34.4049C71.7169 34.4049 70.1809 34.1275 68.8796 33.5729C67.5996 33.0182 66.6183 32.2929 65.9356 31.3969C65.2529 30.4795 64.8903 29.4982 64.8476 28.4529C64.8476 28.2822 64.9116 28.1329 65.0396 28.0049C65.1889 27.8555 65.3596 27.7809 65.5516 27.7809H67.1836C67.5889 27.7809 67.8663 27.9942 68.0156 28.4209C68.2076 29.3169 68.7516 30.0849 69.6476 30.7249C70.5649 31.3649 71.8449 31.6849 73.4876 31.6849C75.2583 31.6849 76.5916 31.3755 77.4876 30.7569C78.3836 30.1169 78.8316 29.2315 78.8316 28.1009C78.8316 27.3755 78.6076 26.7889 78.1596 26.3409C77.7329 25.8929 77.0929 25.4982 76.2396 25.1569C75.3863 24.8155 74.1063 24.3889 72.3996 23.8769C70.7356 23.4075 69.4129 22.9062 68.4316 22.3729C67.4503 21.8395 66.7143 21.1782 66.2236 20.3889C65.7329 19.5995 65.4876 18.6075 65.4876 17.4129C65.4876 16.2609 65.7969 15.2262 66.4156 14.3089C67.0556 13.3915 67.9623 12.6769 69.1356 12.1649C70.3089 11.6315 71.7063 11.3649 73.3276 11.3649C74.9916 11.3649 76.4209 11.6635 77.6156 12.2609C78.8103 12.8369 79.7169 13.5729 80.3356 14.4689C80.9543 15.3649 81.2849 16.2609 81.3276 17.1569C81.3276 17.3275 81.2636 17.4769 81.1356 17.6049C81.0289 17.7329 80.8689 17.7969 80.6556 17.7969H78.9596C78.5116 17.7969 78.2343 17.5942 78.1276 17.1889C77.9996 16.2929 77.4983 15.5569 76.6236 14.9809C75.7489 14.3835 74.6503 14.0849 73.3276 14.0849C71.8769 14.0849 70.7356 14.3622 69.9036 14.9169C69.0716 15.4715 68.6556 16.2929 68.6556 17.3809C68.6556 18.1062 68.8476 18.7035 69.2316 19.1729C69.6369 19.6422 70.2449 20.0582 71.0556 20.4209C71.8663 20.7622 73.0503 21.1569 74.6076 21.6049C76.4209 22.0955 77.8503 22.6075 78.8956 23.1409C79.9409 23.6529 80.7196 24.3035 81.2316 25.0929C81.7436 25.8609 81.9996 26.8422 81.9996 28.0369C81.9996 30.0209 81.2316 31.5782 79.6956 32.7089C78.1596 33.8395 76.0903 34.4049 73.4876 34.4049Z" fill="#00B3B3"/>
<path d="M91.9858 34.4049C89.9592 34.4049 88.3912 33.7542 87.2818 32.4529C86.1725 31.1302 85.6178 29.3809 85.6178 27.2049V18.1809C85.6178 17.9675 85.6818 17.7969 85.8098 17.6689C85.9592 17.5195 86.1405 17.4449 86.3538 17.4449H87.9538C88.1672 17.4449 88.3378 17.5195 88.4658 17.6689C88.6152 17.7969 88.6898 17.9675 88.6898 18.1809V27.0449C88.6898 30.2235 90.0765 31.8129 92.8498 31.8129C94.1938 31.8129 95.2605 31.3969 96.0498 30.5649C96.8392 29.7115 97.2338 28.5382 97.2338 27.0449V18.1809C97.2338 17.9675 97.2978 17.7969 97.4258 17.6689C97.5752 17.5195 97.7565 17.4449 97.9698 17.4449H99.5698C99.7832 17.4449 99.9538 17.5195 100.082 17.6689C100.21 17.7969 100.274 17.9675 100.274 18.1809V33.3489C100.274 33.5622 100.21 33.7435 100.082 33.8929C99.9538 34.0209 99.7832 34.0849 99.5698 34.0849H98.0658C97.8525 34.0849 97.6712 34.0209 97.5218 33.8929C97.3938 33.7435 97.3298 33.5622 97.3298 33.3489V31.9409C96.7325 32.7515 96.0072 33.3702 95.1538 33.7969C94.3005 34.2022 93.2445 34.4049 91.9858 34.4049Z" fill="#00B3B3"/>
<path d="M105.764 34.0849C105.551 34.0849 105.369 34.0209 105.22 33.8929C105.092 33.7435 105.028 33.5622 105.028 33.3489V18.2129C105.028 17.9995 105.092 17.8182 105.22 17.6689C105.369 17.5195 105.551 17.4449 105.764 17.4449H107.236C107.449 17.4449 107.631 17.5195 107.78 17.6689C107.929 17.8182 108.004 17.9995 108.004 18.2129V19.6209C108.879 18.1702 110.372 17.4449 112.484 17.4449H113.732C113.945 17.4449 114.116 17.5195 114.244 17.6689C114.393 17.7969 114.468 17.9675 114.468 18.1809V19.4929C114.468 19.7062 114.393 19.8769 114.244 20.0049C114.116 20.1329 113.945 20.1969 113.732 20.1969H111.812C110.66 20.1969 109.753 20.5382 109.092 21.2209C108.431 21.8822 108.1 22.7889 108.1 23.9409V33.3489C108.1 33.5622 108.025 33.7435 107.876 33.8929C107.727 34.0209 107.545 34.0849 107.332 34.0849H105.764Z" fill="#00B3B3"/>
<path d="M122.976 34.0849C122.421 34.0849 122.027 33.8182 121.792 33.2849L115.872 18.4369L115.808 18.1169C115.808 17.9249 115.872 17.7649 116 17.6369C116.128 17.5089 116.288 17.4449 116.48 17.4449H118.016C118.379 17.4449 118.645 17.6262 118.816 17.9889L123.68 30.5969L128.544 17.9889C128.736 17.6262 128.992 17.4449 129.312 17.4449H130.88C131.051 17.4449 131.2 17.5089 131.328 17.6369C131.477 17.7649 131.552 17.9249 131.552 18.1169L131.488 18.4369L125.536 33.2849C125.301 33.8182 124.907 34.0849 124.352 34.0849H122.976Z" fill="#00B3B3"/>
<path d="M140.965 34.4049C138.768 34.4049 137.008 33.7329 135.685 32.3889C134.384 31.0235 133.669 29.1675 133.541 26.8209L133.509 25.7329L133.541 24.6769C133.69 22.3729 134.416 20.5382 135.717 19.1729C137.04 17.8075 138.778 17.1249 140.933 17.1249C143.301 17.1249 145.136 17.8822 146.437 19.3969C147.738 20.8902 148.389 22.9169 148.389 25.4769V26.0209C148.389 26.2342 148.314 26.4155 148.165 26.5649C148.037 26.6929 147.866 26.7569 147.653 26.7569H136.581V27.0449C136.645 28.4315 137.061 29.6155 137.829 30.5969C138.618 31.5569 139.653 32.0369 140.933 32.0369C141.914 32.0369 142.714 31.8449 143.333 31.4609C143.973 31.0555 144.442 30.6395 144.741 30.2129C144.933 29.9569 145.072 29.8075 145.157 29.7649C145.264 29.7009 145.445 29.6689 145.701 29.6689H147.269C147.461 29.6689 147.621 29.7222 147.749 29.8289C147.877 29.9355 147.941 30.0849 147.941 30.2769C147.941 30.7462 147.642 31.3115 147.045 31.9729C146.469 32.6342 145.648 33.2102 144.581 33.7009C143.536 34.1702 142.33 34.4049 140.965 34.4049ZM145.349 24.5489V24.4529C145.349 22.9809 144.944 21.7862 144.133 20.8689C143.344 19.9302 142.277 19.4609 140.933 19.4609C139.589 19.4609 138.522 19.9302 137.733 20.8689C136.965 21.7862 136.581 22.9809 136.581 24.4529V24.5489H145.349Z" fill="#00B3B3"/>
<path d="M154.502 40.1649C154.332 40.1649 154.182 40.1009 154.054 39.9729C153.926 39.8449 153.862 39.6955 153.862 39.5249C153.862 39.3755 153.916 39.1835 154.022 38.9489L156.486 33.0929L150.374 18.6609C150.268 18.3835 150.214 18.2022 150.214 18.1169C150.214 17.9249 150.278 17.7649 150.406 17.6369C150.534 17.5089 150.694 17.4449 150.886 17.4449H152.454C152.796 17.4449 153.052 17.6262 153.222 17.9889L158.086 29.6369L163.078 17.9889C163.249 17.6262 163.516 17.4449 163.878 17.4449H165.382C165.574 17.4449 165.734 17.5089 165.862 17.6369C165.99 17.7649 166.054 17.9142 166.054 18.0849C166.054 18.1489 166.001 18.3409 165.894 18.6609L156.806 39.6209C156.636 39.9835 156.369 40.1649 156.006 40.1649H154.502Z" fill="#00B3B3"/>
</svg>
